<svg width="24" height="24" viewBox="0 0 24 24" fill="none" xmlns="http://www.w3.org/2000/svg">
  <path d="M12 2C6.48 2 2 6.48 2 12C2 17.52 6.48 22 12 22C17.52 22 22 17.52 22 12C22 6.48 17.52 2 12 2ZM13.41 18.09V19.5H10.74V18.07C9.03 17.71 7.58 16.61 7.47 14.67H9.43C9.53 15.82 10.27 16.54 11.85 16.54C13.56 16.54 14.1 15.73 14.1 14.97C14.1 14.06 13.56 13.43 11.63 12.97C9.24 12.4 7.68 11.42 7.68 9.39C7.68 7.61 9.03 6.43 10.74 6.05V4.5H13.41V6.07C15.27 6.5 16.27 7.87 16.34 9.64H14.38C14.32 8.38 13.62 7.74 12.09 7.74C10.6 7.74 9.77 8.38 9.77 9.36C9.77 10.17 10.36 10.75 12.09 11.15C13.82 11.55 16.18 12.3 16.18 14.95C16.17 16.77 14.93 17.83 13.41 18.09Z" fill="currentColor"/>
</svg>

