<svg width="24" height="24" viewBox="0 0 24 24" fill="none" xmlns="http://www.w3.org/2000/svg">
  <path d="M12 1C5.925 1 1 5.925 1 12s4.925 11 11 11 11-4.925 11-11S18.075 1 12 1zm5.5 8.5h-1.5V8c0-.55-.45-1-1-1h-1c-.55 0-1 .45-1 1v1.5H10V8c0-.55-.45-1-1-1H8c-.55 0-1 .45-1 1v1.5H5.5c-.83 0-1.5.67-1.5 1.5v5c0 .83.67 1.5 1.5 1.5h11c.83 0 1.5-.67 1.5-1.5v-5c0-.83-.67-1.5-1.5-1.5zM12 17c-1.66 0-3-1.34-3-3s1.34-3 3-3 3 1.34 3 3-1.34 3-3 3z" fill="currentColor"/>
  <circle cx="12" cy="14" r="1.5" fill="currentColor"/>
</svg>
