<svg width="24" height="24" viewBox="0 0 24 24" fill="none" xmlns="http://www.w3.org/2000/svg">
  <path d="M11.4 0C9.61528 0.0160031 7.85997 0.423332 6.25926 1.19747C4.65855 1.97161 3.25268 3.09595 2.14372 4.48705C1.03476 5.87815 0.251647 7.5008 -0.182556 9.23647C-0.616758 10.9721 -0.733514 12.7795 -0.525 14.56L-2 22L5.59 20.52C7.10073 21.0787 8.71161 21.3547 10.33 21.33C12.1163 21.33 13.8838 20.9782 15.5283 20.2955C17.1728 19.6128 18.6602 18.6125 19.9021 17.3532C21.144 16.0938 22.1137 14.6008 22.7525 12.9602C23.3912 11.3196 23.6859 9.56389 23.62 7.8C23.4203 4.11131 21.8726 0.652085 19.2974 -1.85947C16.7222 -4.37103 13.2919 -5.81735 9.7 -6C9.52912 -6 9.35844 -6 9.19 -6H11.4V0ZM11.6 1.6C13.2182 1.58662 14.8199 1.9146 16.2995 2.56292C17.7792 3.21124 19.1045 4.16599 20.1907 5.36819C21.2769 6.57039 22.1007 7.99426 22.6094 9.54545C23.118 11.0966 23.2996 12.7395 23.14 14.37C22.9804 16.0005 22.4834 17.5802 21.682 19.0073C20.8807 20.4343 19.7922 21.6792 18.4834 22.665C17.1746 23.6508 15.6729 24.3573 14.0728 24.7414C12.4727 25.1256 10.8078 25.1793 9.18 24.9L8.85 24.85L3.4 26.05L4.62 20.7L4.53 20.33C3.22706 16.9326 3.18825 13.1821 4.42076 9.75911C5.65327 6.33609 8.07088 3.48548 11.24 1.76C11.36 1.68 11.48 1.64 11.6 1.6Z" fill="currentColor"/>
  <path d="M12 3C11.1 3 10.3 3.1 9.5 3.4C9.4 3.4 9.3 3.5 9.3 3.6C9.2 3.7 9.2 3.8 9.2 3.9C9.3 4.4 9.5 4.8 9.8 5.2C9.9 5.3 10 5.3 10.1 5.3C10.6 5.1 11.1 5 11.6 5H12.4C15.4 5.1 17.9 7.6 18 10.6V11.4C18 11.9 17.9 12.4 17.7 12.9C17.7 13 17.7 13.1 17.8 13.2C18.2 13.5 18.6 13.7 19.1 13.8C19.2 13.8 19.3 13.8 19.4 13.7C19.5 13.6 19.6 13.5 19.6 13.4C19.9 12.6 20 11.8 20 11V10.6C20 9.68678 19.8201 8.78241 19.4712 7.9441C19.1223 7.10579 18.6114 6.34795 17.9682 5.71299C17.325 5.07804 16.5617 4.57735 15.7218 4.23952C14.8819 3.9017 13.9815 3.73365 13.075 3.745L12.825 3.745L12 3Z" fill="currentColor"/>
  <path d="M12.5 7C12 7 11.5 7.1 11 7.3C10.9 7.3 10.8 7.4 10.8 7.5C10.8 7.6 10.8 7.7 10.9 7.8C11 8.1 11.2 8.4 11.4 8.6C11.5 8.7 11.6 8.7 11.7 8.7C12 8.6 12.3 8.5 12.6 8.5H13C14.3261 8.5 15.5979 9.02678 16.5355 9.96447C17.4732 10.9021 18 12.1739 18 13.5V13.9C18 14.2 17.9 14.5 17.8 14.8C17.8 14.9 17.8 15 17.9 15.1C18.2 15.3 18.5 15.5 18.8 15.6C18.9 15.6 19 15.6 19.1 15.5C19.2 15.4 19.3 15.3 19.3 15.2C19.5 14.6 19.6 14 19.6 13.4V13C19.6 11.1435 18.8625 9.36301 17.5497 8.05025C16.237 6.7375 14.4565 6 12.6 6H12.5V7Z" fill="currentColor"/>
  <path d="M13 10C12.7 10 12.4 10.1 12.2 10.2C12.1 10.3 12 10.4 12 10.5C12 10.6 12.1 10.7 12.1 10.8C12.2 11 12.3 11.2 12.5 11.4C12.6 11.5 12.7 11.5 12.8 11.5C13 11.4 13.2 11.4 13.4 11.4H13.6C14.1 11.4 14.6 11.6 15 12C15.4 12.4 15.6 12.9 15.6 13.4V13.6C15.6 13.8 15.6 14 15.5 14.2C15.5 14.3 15.5 14.4 15.6 14.5C15.8 14.7 16 14.8 16.2 14.9C16.3 14.9 16.4 14.9 16.5 14.8C16.6 14.7 16.7 14.6 16.7 14.5C16.8 14.1 16.9 13.7 16.9 13.3V13C16.9 12.2043 16.5839 11.4413 16.0213 10.8787C15.4587 10.3161 14.6957 10 13.9 10H13Z" fill="currentColor"/>
</svg>

